<?xml version="1.0" encoding="UTF-8"?>
<svg id="_Слой_1" data-name="Слой 1" xmlns="http://www.w3.org/2000/svg" viewBox="0 0 1080 1080">
  <defs>
    <style>
      .cls-1 {
        fill: #fff;
      }

      .cls-2 {
        fill: #f08309;
      }
    </style>
  </defs>
  <path class="cls-2" d="M900,360c0,198.82-360,720-360,720,0,0-360-521.18-360-720S341.18,0,540,0s360,161.18,360,360Z"/>
  <path class="cls-1" d="M366.15,232.57c.93-.28,1.45,.34,2.05,.69,30.41,17.48,60.81,34.97,91.22,52.44,20.4,11.72,40.78,23.46,61.24,35.06,2.65,1.5,3.76,3.16,3.75,6.3-.09,30.46,0,60.92,0,91.38,0,11.87-.07,23.74-.1,35.61,0,.31,.03,.62,0,.93-.47,4.15,1.26,6.88,5.11,8.54,2.26,.97,4.37,2.32,6.51,3.56,2.75,1.61,5.46,1.61,8.2,0,2.31-1.36,4.61-2.75,6.96-4.03,2.9-1.59,4.28-3.87,4.25-7.28-.1-11.57-.04-23.14-.04-34.71,0-36.26,0-72.53,0-108.79,0-1.03-.04-2.07,0-3.1,.11-2.88-1.13-4.84-3.66-6.27-7.83-4.4-15.59-8.91-23.37-13.38-31.04-17.85-62.07-35.7-93.11-53.55-18.52-10.64-37.04-21.27-55.56-31.92-1.5-.86-3.09-1.59-4.56-2.88,7.04-3.79,13.93-7.52,20.83-11.23,19.89-10.71,39.78-21.42,59.67-32.11,15.53-8.35,31.08-16.69,46.62-25.04,9.72-5.23,19.48-10.39,29.13-15.74,5.67-3.14,11-3.03,16.72,.08,22.3,12.13,44.7,24.06,67.06,36.09,24.99,13.44,49.97,26.89,74.95,40.34,4.99,2.69,9.98,5.37,15.3,8.24-5.85,3.35-11.36,6.52-16.88,9.69-25.85,14.85-51.7,29.7-77.55,44.54-5.9,3.39-11.8,6.8-17.75,10.09-2.74,1.51-4.06,3.6-3.9,6.76,.14,2.89,.04,5.78,.03,8.68,0,2.69,1.08,4.75,3.39,6.18,2.63,1.63,5.24,3.29,7.83,5,2.6,1.72,5.14,1.73,7.84,.17,16.35-9.44,32.71-18.84,49.08-28.25,18.06-10.39,36.12-20.78,54.19-31.16,.61-.35,1.14-.9,2.18-.85,.48,.85,.25,1.88,.25,2.85,.01,57.24,0,114.48,.01,171.71,0,5.69-2.62,9.87-7.43,12.7-13.7,8.04-27.43,16.03-41.15,24.04-26.37,15.39-52.75,30.79-79.12,46.18-12.65,7.38-25.33,14.72-37.95,22.16-5.61,3.31-11.02,3.27-16.65-.03-52.65-30.78-105.33-61.53-158.03-92.24-5.21-3.04-7.76-7.22-7.75-13.37,.09-56.93,.05-113.86,.07-170.78,0-1.1-.2-2.23,.15-3.28Z"/>
</svg>