<svg fill="none" viewBox="0 0 48 48" xmlns="http://www.w3.org/2000/svg" xmlns:xlink="http://www.w3.org/1999/xlink"><clipPath id="a"><path d="m0 0h48v48h-48z"/></clipPath><g clip-path="url(#a)"><path d="m39.0996 27.8994c-2.2 0-4 1.8-4 4s1.8 4 4 4 4-1.8 4-4-1.8-4-4-4z" fill="#061ab1"/><path d="m7.7998 27.8994c-2.2 0-4 1.8-4 4s1.8 4 4 4 4-1.8 4-4-1.8-4-4-4z" fill="#061ab1"/><path d="m47.8998 26.6995v.3c-.2-2.7.2-4-2.9-5.7-.9-.5-1.9-1-2.7-1.8-.1-.1-3.9-4.8-4.5-5.5-1.1-1.1-1.8-2-4.8-2-1.5 0-28.59997-.1-29.99997 0-.9.1-1.4.7-1.7 1.5-.2.7-.599995 15-.599995 15s-.6000003.3-.70000035 1.2c-.09999965.9.09999995 2.3.90000035 3 .399995.4 1.099995.4 1.899995.4-.1-.4-.1-.8-.1-1.2 0-2.9 2.3-5.2 5.2-5.2 2.89997 0 5.19997 2.3 5.19997 5.2 0 .4-.1.9-.2 1.3h21.2c-.1-.4-.2-.8-.2-1.3 0-2.9 2.3-5.2 5.2-5.2s5.2 2.3 5.2 5.2c0 .5-.1.9-.2 1.3h.1.1s3.6 0 3.6-3.6c.1 0 .1-1.3 0-2.9zm-9.7-7.3c-.4 0-.7.3-.7.7v.8h-7.5v-7.5h.2 2.8c2.3 0 2.8.5 3.7 1.5.4.4 2.6 3.1 3.6 4.4 0 0 0 .1.1.1z" fill="#061ab1"/><g fill="#fff"><path d="m22.6738 21.3787c.4473 0 .81-.3535.81-.7895s-.3627-.7894-.81-.7894c-.4474 0-.81.3534-.81.7894s.3626.7895.81.7895z"/><path d="m11.1297 18.8355v1.0329h.8817c-.1288.197-.4193.302-.6162.302-.6637 0-.9956-.3687-.9956-1.1127 0-.8216.438-1.242 1.3075-1.242.3452 0 .7966.0841 1.2811.2329v-1.2355c-.1395-.0582-.3518-.1034-.624-.1488-.2788-.0453-.5244-.0647-.7368-.0647-.863 0-1.5466.2265-2.05755.6792-.51115.4529-.77005 1.0609-.77005 1.8308 0 .705.19919 1.2614.59739 1.669.3982.414.93591.621 1.61291.621.6798 0 1.3044-.3438 1.5057-.7804l-.0044.7027h.9834v-2.4864z"/><path d="m13.9858 21.3214v-4.6446h1.5267v3.435h1.6659v1.2096z"/><path d="m17.7356 21.2055v-1.2679c.2257.0712.4912.1293.7899.1812.2987.0518.5576.0776.7767.0776.3717 0 .5642-.0905.5642-.2523 0-.1034-.0597-.1553-.3318-.2135l-.5311-.1164c-.9093-.2006-1.3341-.6468-1.3341-1.4038 0-.4981.1793-.8927.5311-1.1838.3514-.2848.8426-.427 1.4599-.427.4248 0 1.0754.0841 1.4736.1812v1.2097c-.2058-.0518-.4513-.1035-.75-.1489-.2987-.0453-.531-.0647-.7035-.0647-.3252 0-.5111.0906-.5111.2523 0 .097.0862.1618.2655.2071l.6173.1422c.9027.2071 1.3208.6598 1.3208 1.4297 0 .4917-.1859.8797-.551 1.1644-.365.2846-.8695.4268-1.5133.4268-.6107 0-1.228-.084-1.5731-.1939z"/></g></g></svg>