<svg baseProfile="basic" xmlns="http://www.w3.org/2000/svg" width="32" height="32"
    viewBox="0 0 37 52">
    <path fill="#FD0"
        d="M18.5-.018C8.282-.018 0 8.229 0 18.403c0 10.179 18.5 33.58 18.5 33.58S37 28.583 37 18.403C37 8.229 28.718-.018 18.5-.018z" />
    <g fill="#4B4B4B">
        <path
            d="M31.107 10.33H5.892a.377.377 0 0 0-.371.381c0 .212.168.382.371.382h25.217c.205 0 .371-.17.371-.382a.378.378 0 0 0-.373-.381zM29.993 12.394H7.035c-.422 0-.498-.064-.498.358v13.766c0 .424.076 1.146.498 1.146h22.949c.424 0 .981-.725.981-1.146V12.751c.005-.422-.55-.357-.972-.357zM11.12 26.898H7.304V24.61h3.816v2.288zm0-3.053H7.304v-2.29h3.816v2.29zm0-6.107V20.792H7.304v-7.636h3.816v4.582zm4.582 9.16h-3.818V24.61h3.818v2.288zm0-3.053h-3.818v-2.29h3.818v2.29zm0-3.053h-3.818v-2.29h3.818v2.29zm0-3.054h-3.818v-4.582h3.818v4.582zm5.342 0v9.163h-4.58V13.155h4.58v4.583zm4.582 9.16h-3.817V24.61h3.817v2.288zm0-3.053h-3.817v-2.29h3.817v2.29zm0-3.053h-3.817v-2.29h3.817v2.29zm0-3.054h-3.817v-4.582h3.817v4.582zm4.582 9.16h-3.819V24.61h3.819v2.288zm0-3.053h-3.819v-2.29h3.819v2.29zm0-3.053h-3.819v-7.636h3.819v7.636z" />
        <path
            d="M17.61 20.028h2.289c.211 0 .385-.17.385-.383v-3.053a.385.385 0 0 0-.385-.382H17.61a.382.382 0 0 0-.383.382v3.053c.001.213.17.383.383.383zm.381-3.053h1.524v2.29h-1.524v-2.29z" />
    </g>
</svg>