<?xml version="1.0" encoding="UTF-8"?>
<svg id="_Слой_1" data-name="Слой 1" xmlns="http://www.w3.org/2000/svg" viewBox="0 0 1080 1080">
  <defs>
    <style>
      .cls-1 {
        fill: #fff;
      }

      .cls-2 {
        fill: #f08309;
      }
    </style>
  </defs>
  <path class="cls-2" d="M900,360c0,198.82-360,720-360,720,0,0-360-521.18-360-720S341.18,0,540,0s360,161.18,360,360Z"/>
  <g>
    <path class="cls-1" d="M734.25,181.19H345.72c-3.2,.05-5.75,2.67-5.72,5.87,0,3.27,2.59,5.89,5.72,5.89h388.57c3.16,0,5.72-2.62,5.72-5.89,.03-3.2-2.54-5.83-5.75-5.87Zm-17.17,31.8H363.33c-6.5,0-7.67-.99-7.67,5.52v212.12c0,6.53,1.17,17.66,7.67,17.66h353.62c6.53,0,15.12-11.17,15.12-17.66V218.5c.08-6.5-8.47-5.5-14.98-5.5Zm-290.81,223.49h-58.8v-35.26h58.8v35.26Zm0-47.04h-58.8v-35.29h58.8v35.29Zm0-94.1v47.06h-58.8v-117.66h58.8v70.6Zm70.6,141.15h-58.83v-35.26h58.83v35.26Zm0-47.04h-58.83v-35.29h58.83v35.29Zm0-47.04h-58.83v-35.29h58.83s0,35.29,0,35.29Zm0-47.06h-58.83v-70.6h58.83v70.6Zm82.31,0v141.19h-70.57V224.72h70.57v70.62Zm70.6,141.15h-58.82v-35.26h58.82v35.26Zm0-47.04h-58.82v-35.29h58.82s0,35.29,0,35.29Zm0-47.04h-58.82v-35.29h58.82v35.29Zm0-47.06h-58.82v-70.6h58.82v70.6Zm70.6,141.15h-58.85v-35.26h58.85v35.26Zm0-47.04h-58.85v-35.29h58.85s0,35.29,0,35.29Zm0-47.04h-58.85v-117.66h58.85v117.66Z"/>
    <path class="cls-1" d="M526.28,330.63h35.27c3.25,0,5.93-2.62,5.93-5.9v-47.04c-.03-3.26-2.67-5.89-5.93-5.89h-35.27c-3.25,0-5.89,2.62-5.9,5.87,0,0,0,.01,0,.02v47.04c.02,3.28,2.62,5.9,5.9,5.9Zm5.87-47.04h23.48v35.29h-23.48s0-35.29,0-35.29Z"/>
  </g>
</svg>