<?xml version="1.0" encoding="UTF-8"?>
<svg id="_Слой_1" data-name="Слой 1" xmlns="http://www.w3.org/2000/svg" viewBox="0 0 1080 1080">
  <defs>
    <style>
      .cls-1 {
        fill: #fff;
      }

      .cls-2 {
        fill: #f08309;
      }
    </style>
  </defs>
  <path class="cls-2" d="M900,360c0,198.82-360,720-360,720,0,0-360-521.18-360-720S341.18,0,540,0s360,161.18,360,360Z"/>
  <path class="cls-1" d="M577.41,146.21c.45,.09,.91,.25,1.36,.26,4.46,.1,8.92,.13,13.38,.27,7.82,.24,15.63,.51,23.44,.83,7.34,.3,14.69,.54,22.01,1.08,12.38,.91,24.75,1.98,37.11,3.09,11.59,1.04,23.12,2.64,34.55,4.84,7.6,1.46,15.16,3.12,22.35,6.09,2.01,.83,3.92,1.93,5.83,2.98,.73,.4,1.34,1.01,1.9,1.97-.64,.05-1.28,.15-1.92,.14-8.76-.1-17.52-.19-26.28-.34-10.48-.17-20.96-.51-31.44-.57-29.03-.17-58.06-.27-87.1-.3-9.23,0-18.46,.23-27.69,.46-10.24,.25-20.48,.58-30.72,.94-7.11,.25-14.22,.56-21.32,.94-7.49,.4-14.98,.8-22.46,1.4-11.6,.93-23.2,1.84-34.76,3.11-10.86,1.19-21.7,2.7-32.51,4.29-5.79,.85-11.5,2.24-17.26,3.29-2.03,.37-3.51,1.37-4.37,3.15-1.55,3.23-3.17,6.46-4.41,9.82-4.14,11.23-7.09,22.82-9.89,34.44-4.45,18.46-8.15,37.07-11.09,55.82-1.73,11.03-3.18,22.1-4.39,33.2-1.06,9.7-1.7,19.44-2.38,29.18-.45,6.47-.79,12.95-.94,19.43-.22,9.69-.48,19.4-.23,29.08,.23,9.36,.73,18.74,3.03,27.9,.09,.38,.21,.75,.29,1.13,.87,4.03,3.14,6.67,7.06,8.32,8.03,3.37,16.29,5.94,24.72,8.03,13.96,3.46,28.09,6.09,42.34,8.06,10.67,1.48,21.36,2.89,32.07,4.04,8.77,.93,17.59,1.49,26.4,2.08,5.69,.38,11.4,.67,17.11,.73,6.41,.06,12.83-.16,19.24-.3,7.82-.17,15.64-.31,23.46-.61,7.57-.29,15.14-.75,22.71-1.19,5.85-.34,11.7-.65,17.54-1.14,16.98-1.41,33.9-3.23,50.57-6.9,6.26-1.38,12.46-3.02,18.36-5.59,.5-.22,1-.45,1.5-.66,4.25-1.78,7.08-4.72,8.82-9.13,4.51-11.43,8.17-23.12,11.42-34.95,4.92-17.94,8.79-36.12,11.58-54.5,1.41-9.26,2.42-18.57,3.47-27.88,1.2-10.64,1.59-21.33,1.99-32.03,.34-9.16,.02-18.3-.34-27.43-.42-10.53-1.51-21.02-3.08-31.45-.36-2.41-.99-3.02-3.41-2.72-1.69,.21-3.37,.66-4.99,1.2-10.91,3.63-21.52,8.03-32.01,12.73-19.05,8.52-38.03,17.2-57.09,25.7-15.2,6.78-30.56,13.19-46.4,18.39-8.92,2.93-17.96,5.32-27.28,6.66-6.83,.98-13.17,.08-19.17-3.47-6.3-3.72-12.01-8.2-17.53-12.95-9.66-8.32-19.18-16.82-28.91-25.05-8.49-7.18-17.5-13.68-27.29-19.02-6.05-3.3-12-3.03-17.74,.71-2.24,1.46-3.71,3.51-4.22,6.23-.91,4.85,2.01,10.08,6.67,11.93,1.16,.46,2.37,.8,3.56,1.18,10.19,3.32,19.53,8.33,28.45,14.21,10.8,7.12,20.74,15.35,30.66,23.62,8.65,7.21,17.14,14.65,26.57,20.86,3.65,2.4,7.48,4.56,11.39,6.51,8.2,4.11,16.71,4.66,25.52,1.99,8.48-2.58,16.57-6.1,24.51-9.99,16.24-7.94,31.82-17.08,47.34-26.33,14.91-8.89,29.8-17.82,44.77-26.6,4.65-2.72,9.52-5.07,14.35-7.46,1.74-.86,3.62-1.48,5.5-1.99,2.46-.67,3.75-.12,4.72,2.21,.78,1.85,1.31,3.84,1.65,5.83,.87,5.03,.78,10.13,.56,15.21-.7,16.57-3.16,32.93-6.02,49.25-3.76,21.48-8.45,42.74-14.2,63.77-2.95,10.78-6.08,21.5-10.39,31.83-1.26,3.02-2.85,5.9-4.41,8.78-.96,1.77-2.49,2.88-4.42,3.64-9.35,3.66-19.03,6.11-28.88,7.96-11.61,2.17-23.32,3.49-35.09,4.4-17.41,1.35-34.84,1.6-52.29,1.22-6.02-.13-12.05-.21-18.06-.54-8.42-.47-16.84-1.07-25.25-1.78-22.67-1.91-45.19-4.86-67.41-9.87-9.54-2.15-18.98-4.65-27.98-8.53-2.72-1.17-5.3-2.66-7.9-4.1-3.98-2.2-6.22-5.57-6.67-10.13-.66-6.76-1.53-13.5-2.01-20.27-1-14.05-1.16-28.13-.79-42.2,.27-10,.66-19.99,1.24-29.98,.49-8.49,1.14-16.99,2.07-25.45,2.3-21.07,5.6-41.97,12.19-62.19,1.98-6.08,4.66-11.92,6.95-17.9,.8-2.08,2.25-3.4,4.28-4.01,3.96-1.18,7.92-2.43,11.96-3.29,9.71-2.06,19.55-3.37,29.43-4.32,9.56-.92,19.14-1.71,28.71-2.45,5.37-.42,10.76-.71,16.15-.93,9.14-.37,18.28-.8,27.43-.92,15.33-.21,30.67-.34,46-.25,9.77,.06,19.55,.49,29.31,.9,8.51,.36,17.02,.79,25.51,1.41,11.21,.82,22.42,1.72,33.61,2.82,18.26,1.81,36.46,4.14,54.58,7.04,7.25,1.16,14.47,2.5,21.69,3.78,.61,.11,1.2,.31,1.86,.48,.07,.41,.19,.79,.19,1.16-.05,7.67,.04,15.34-.22,23-.27,7.96-.74,15.92-1.4,23.86-.88,10.73-1.95,21.45-3.08,32.16-1.05,9.86-2.19,19.71-3.47,29.54-1.37,10.45-2.87,20.88-4.47,31.29-1.84,11.96-3.74,23.91-5.84,35.83-3.79,21.54-7.8,43.03-13.56,64.15-.68,2.48-1.55,4.91-2.29,7.38-1.13,3.74-3.41,6.63-6.46,8.99-4.82,3.72-10.31,6.17-15.97,8.27-10.29,3.81-20.91,6.45-31.7,8.31-11.31,1.95-22.67,3.61-34.05,5.11-7.43,.98-14.92,1.51-22.4,2.1-8.33,.66-16.68,1.27-25.03,1.69-7.57,.38-15.16,.47-22.75,.71-.92,.03-1.84,.22-2.77,.33h-40.38c-.61-.11-1.21-.31-1.82-.33-12.03-.5-24.06-.93-36.08-1.48-5.46-.25-10.93-.58-16.37-1.13-10.88-1.1-21.75-2.26-32.6-3.6-13.89-1.72-27.64-4.21-41.21-7.67-9.55-2.44-18.9-5.46-27.83-9.72-2.97-1.42-4.72-3.44-5.31-6.59-.09-.46-.24-.91-.33-1.36-1.86-8.76-2.09-17.68-2.46-26.56-.47-11.41,.26-22.82,.94-34.21,.57-9.59,1.1-19.18,1.92-28.75,.93-10.89,1.99-21.77,3.32-32.61,1.59-12.94,3.34-25.86,5.34-38.74,2.69-17.28,5.97-34.46,9.76-51.54,5.48-24.72,12.09-49.12,20.25-73.11,1.1-3.22,2.99-5.19,5.96-6.41,.94-.39,1.89-.75,2.85-1.08,5.78-1.99,11.74-3.28,17.77-4.12,9.2-1.29,18.42-2.48,27.65-3.44,8.77-.91,17.58-1.57,26.38-2.17,7.09-.49,14.2-.77,21.31-1.07,7.73-.33,15.47-.59,23.2-.84,4.46-.14,8.92-.17,13.37-.27,.46-.01,.91-.17,1.36-.26,18.63,0,37.25,0,55.88,0Z"/>
</svg>