<svg width="16" height="16" viewBox="0 0 60 60" fill="none" xmlns="http://www.w3.org/2000/svg">
<path d="M10.294 10.2942H0.000142339C3.26384 7.03058 7.13846 4.44166 11.4028 2.67538C15.6671 0.909099 20.2375 0 24.8532 0C29.4688 0 34.0393 0.909099 38.3036 2.67538C42.5679 4.44166 46.4425 7.03058 49.7062 10.2942H10.294Z" fill="#FF6600"/>
<path d="M10.294 49.7021V10.2942C3.70281 16.8859 0 25.8257 0 35.1471C0 44.4686 3.70281 53.4083 10.294 60V49.7021Z" fill="#FF6600"/>
<path d="M49.7062 49.7021V10.2942V0.000910923C56.2971 6.59182 59.9997 15.5308 59.9997 24.8515C59.9997 34.1722 56.2971 43.1112 49.7062 49.7021Z" fill="#FF6600"/>
<path d="M49.7062 49.7021H10.294C13.5577 52.9657 17.4323 55.5546 21.6966 57.3209C25.9609 59.0871 30.5313 59.9962 35.147 59.9962C39.7626 59.9962 44.3331 59.0871 48.5974 57.3209C52.8617 55.5546 56.7363 52.9657 60 49.7021H49.7062Z" fill="#FF6600"/>
</svg>
