<svg width="52" height="57" viewBox="0 0 52 57" fill="none" xmlns="http://www.w3.org/2000/svg">
    <g filter="url(#filter0_d_4440_101252)">
        <path
            d="M8.75 26.2222C8.75 16.5639 16.4817 8.75 26 8.75C35.5183 8.75 43.25 16.5639 43.25 26.2222C43.25 30.2502 41.6543 33.5078 39.4736 36.2729C37.6172 38.6268 35.3716 40.5849 33.3431 42.3537C32.9785 42.6715 32.621 42.9833 32.274 43.2901L26 48.058L19.726 43.2901C19.379 42.9833 19.0215 42.6715 18.657 42.3537C16.6284 40.5849 14.3828 38.6268 12.5264 36.2729C10.3457 33.5078 8.75 30.2502 8.75 26.2222Z"
            fill="#BA1B02" stroke="white" stroke-width="1.5" />
        <path
            d="M21 19V32.9847L31.1832 33V19H21ZM30.542 21.8855H26.3893V19.6412H30.542V21.8855ZM21.6412 24.7557V22.5114H25.7481V24.7557H21.6412ZM26.3893 22.5114H30.542V24.7557H26.3893V22.5114ZM25.7481 19.6412V21.8855H21.6412V19.6412H25.7481ZM25.7786 28.542H26.4198V29.5038H25.7786V28.542ZM27.0458 30.1298V28.542H27.9924V32.374H24.1756V28.5573H25.1221V30.1298H27.0458ZM28.6336 32.3588V27.8855L23.5496 27.9008V32.3588H21.6412V25.3969H30.542V32.374L28.6336 32.3588Z"
            fill="white" />
    </g>
    <defs>
        <filter id="filter0_d_4440_101252" x="0" y="0" width="52" height="57"
            filterUnits="userSpaceOnUse" color-interpolation-filters="sRGB">
            <feFlood flood-opacity="0" result="BackgroundImageFix" />
            <feColorMatrix in="SourceAlpha" type="matrix"
                values="0 0 0 0 0 0 0 0 0 0 0 0 0 0 0 0 0 0 127 0" result="hardAlpha" />
            <feOffset />
            <feGaussianBlur stdDeviation="4" />
            <feColorMatrix type="matrix" values="0 0 0 0 0 0 0 0 0 0 0 0 0 0 0 0 0 0 0.25 0" />
            <feBlend mode="normal" in2="BackgroundImageFix" result="effect1_dropShadow_4440_101252" />
            <feBlend mode="normal" in="SourceGraphic" in2="effect1_dropShadow_4440_101252"
                result="shape" />
        </filter>
    </defs>
</svg>
    