<svg version="1.1" id="Capa_1" xmlns="http://www.w3.org/2000/svg" xmlns:xlink="http://www.w3.org/1999/xlink" x="0px" y="0px"
	 viewBox="0 0 498.22 498.22" style="enable-background:new 0 0 498.22 498.22;" xml:space="preserve" width="89.25" height="64.5">
<circle xmlns="http://www.w3.org/2000/svg" cx="250" cy="140" r="130" fill="white"/>
<g>
	<g>
		<g>
			<path style="fill: rgb(244, 114, 22);" d="M269.061,484.131c-3.185,8.461-11.255,14.049-20.273,14.089
				c-9.028,0.029-17.147-5.501-20.39-13.913c-44.034-114.321-132.63-261.205-132.63-330.964C95.767,68.801,164.539,0,249.12,0
				c84.541,0,153.333,68.801,153.333,153.343C402.462,223.307,312.557,368.579,269.061,484.131z M249.12,29.164
				c-66.32,0-120.261,53.941-120.261,120.232c0,66.33,53.941,120.3,120.261,120.3c66.3,0,120.241-53.951,120.241-120.3
				C369.351,83.105,315.42,29.164,249.12,29.164z"/>
		</g> 
	</g>
</g>
<path d="M304.3,190h-78.9c-4.8,0-9.5,2-12.9,5.5l-24.1,24.9c-3.3,3.4-5.1,7.8-5.1,12.5v69.4c0,5.4-0.1,8.6,5.5,8.6  l84.6,0c5.2,0,9.5-1.8,13.1-5.4l25.1-25.5c3.3-3.4,5.2-7.9,5.2-12.6v-65C316.7,195.6,311.1,190,304.3,190" style="fill:#F58220;transform:scale(1.2) translate(-40px, -130px);"/><path d="M227.9,234.1c3.7,0,7,1,9.5,2.7l3.2-5.3c-3.5-2.4-8.1-3.7-12.8-3.7c-12.5,0-21.7,9.5-21.5,22.2  c0.2,12.3,9.3,21.4,21.7,21.5c9.2,0.1,16.7-4.9,23.9-15l13.2-18.9c2.3-3.1,0.3-6.8-3.6-6.8h-16.5l-11.8,19c-1.7,2.8-3,3.8-5.2,3.8  c-2.3,0-3.8-1.6-3.8-3.9c0-2.4,1.6-4,3.9-4c1.2,0,2.3,0.4,3.1,1.3l3-5c-1.8-1.4-4-2.2-6.5-2.2c-5.4,0-9.3,4.3-9.3,9.9  c0,5.5,4,9.6,9.4,9.6c4.3,0,7.5-1.8,12.2-8.8l8.7-13.6h9.7L247,253.2c-6.1,8.4-11.8,12.2-18.8,12.1c-8.9-0.1-15.3-6.4-15.5-15.3  C212.5,240.8,219,234.1,227.9,234.1" style="fill:white;transform:scale(1.2) translate(-40px, -130px);"/><path style="fill:white;transform:scale(1.2) translate(-40px, -130px);" d="M307.5,267.3V204c0-2.1-1.7-3.8-3.8-3.8h-76.9c-2.5,0-4.9,1-6.6,2.8l-23.5,24.3c-1.7,1.7-2.6,4-2.6,6.4v67.6  l74.6,0v-5.5l-69.1,0v-62.1c0-0.9,0.4-1.8,1-2.5l23.5-24.3c0.7-0.7,1.6-1.1,2.6-1.1h75.1v61.6c0,1-0.4,1.9-1,2.5l-19.2,19.1l0-55.3  c0-0.9,0.4-1.8,1-2.5l11.9-12.3v-8l-15.9,16.4c-1.7,1.7-2.6,4-2.6,6.4l0,68.9l28.7-28.8C306.5,272,307.5,269.7,307.5,267.3"/>
</svg>
