<?xml version="1.0" encoding="UTF-8"?>
<svg id="_Слой_1" data-name="Слой 1" xmlns="http://www.w3.org/2000/svg" viewBox="0 0 1080 1080">
  <defs>
    <style>
      .cls-1 {
        fill: #fff;
      }

      .cls-2 {
        fill: #f08309;
      }
    </style>
  </defs>
  <path class="cls-2" d="M900,360c0,198.82-360,720-360,720,0,0-360-521.18-360-720S341.18,0,540,0s360,161.18,360,360Z"/>
  <g>
    <path class="cls-1" d="M737.75,307.67c-31-53.26-61.88-106.61-92.6-160.03-3-5.22-6.6-7.35-12.59-7.29-25.66,.22-51.32,.08-76.99,.08s-51.74,0-77.61,.02c-10.61,.02-12.33,2.92-7.09,11.95,58.56,101.27,117.12,202.52,175.68,303.77,5.02,8.67,8.47,8.63,13.57-.14,25.84-44.63,51.6-89.3,77.61-133.85,3.02-5.18,3.02-9.35,.02-14.51Zm-47.61,10.61c-11.91,20.21-23.58,40.57-35.36,60.86-.3,.5-.78,.9-1.82,2.04-14.43-24.9-28.48-49.17-42.53-73.45-22.76-39.35-45.53-78.71-68.25-118.08-3.52-6.08-3.46-6.14,3.5-6.14,21.64-.02,43.31,.12,64.96-.14,4.24-.04,6.36,1.54,8.33,4.98,23.38,40.67,46.91,81.28,70.41,121.92,1.5,2.58,2.68,4.78,.76,8.01Z"/>
    <path class="cls-1" d="M609.7,478.11c-58.76-101.67-117.52-203.32-176.32-304.97-4.6-7.95-8.39-7.97-12.99-.02-26.18,45.17-52.28,90.4-78.49,135.55-2.48,4.26-2.58,8.03-.08,12.35,31.24,53.88,62.42,107.79,93.5,161.75,2.6,4.52,5.8,6.44,11.13,6.38,26.08-.24,52.18-.1,78.27-.1s52.6,.02,78.91-.02c8.63,0,10.49-3.3,6.08-10.91Zm-105.71-31.9c-11.79,0-23.56-.14-35.34,.08-3.44,.08-5.28-1.12-6.96-4.02-23.62-41.05-47.35-82.06-71.07-123.06-1.38-2.38-2.68-4.32-.86-7.38,12.33-20.95,24.46-42.01,37.09-63.84,38.25,66.13,76.15,131.71,114.6,198.2h-37.47Z"/>
  </g>
</svg>