<svg xmlns="http://www.w3.org/2000/svg" width="35.09" height="50.686" viewBox="0 0 35.09 50.686">
    <g transform="translate(-1007.91 -1180.307)">
        <path
            d="M25.42,3.375c-9.686,0-17.545,7.3-17.545,16.29,0,12.672,17.545,34.4,17.545,34.4s17.545-21.724,17.545-34.4C42.965,10.673,35.107,3.375,25.42,3.375Z"
            transform="translate(1000.035 1176.932)" fill="#03f27f" />
        <g transform="translate(1017.164 1193.441)">
            <path d="M86.972,45.1H81.68v9.068l5.292,4.625Z" transform="translate(-70.389 -45.1)" />
            <path
                d="M60.111,55.862h-6V45.1H48.82v9.37a3.071,3.071,0,0,0,1.048,2.309l3.374,2.948a3,3,0,0,0,2,.756H65.4Z"
                transform="translate(-48.82 -45.1)" />
        </g>
    </g>
</svg>