<?xml version="1.0" encoding="UTF-8"?>
<svg id="_Слой_1" data-name="Слой 1" xmlns="http://www.w3.org/2000/svg" viewBox="0 0 1080 1080">
  <defs>
    <style>
      .cls-1 {
        fill: #fff;
      }

      .cls-2 {
        fill: #f08309;
      }
    </style>
  </defs>
  <path class="cls-2" d="M900,360c0,198.82-360,720-360,720,0,0-360-521.18-360-720S341.18,0,540,0s360,161.18,360,360Z"/>
  <path class="cls-1" d="M630.99,433.03V171.44q0-31.45,32.04-31.45c21.79,0,43.58,.26,65.36-.14,7.87-.14,11.63,1.27,11.61,10.46-.29,109.78-.27,219.57-.03,329.36,.02,8.33-3.16,10.06-10.73,10.03-60.13-.23-120.27-.25-180.4,.03-7.17,.03-10.78-2.77-14.18-8.66-63.59-109.97-127.27-219.89-191.31-329.6-5.82-9.97-4.38-11.85,6.78-11.67,32.24,.52,64.49,.54,96.73-.05,8.64-.16,13.13,2.72,17.29,10,51.48,89.91,103.26,179.65,155,269.42,2.93,5.09,6.16,10,9.25,15,.86-.38,1.72-.75,2.58-1.13Z"/>
</svg>