<?xml version="1.0" encoding="UTF-8" standalone="no"?><!DOCTYPE svg PUBLIC "-//W3C//DTD SVG 1.1//EN" "http://www.w3.org/Graphics/SVG/1.1/DTD/svg11.dtd"><svg width="100%" height="100%" viewBox="0 0 39 49" version="1.1" xmlns="http://www.w3.org/2000/svg" xmlns:xlink="http://www.w3.org/1999/xlink" xml:space="preserve" xmlns:serif="http://www.serif.com/" style="fill-rule:evenodd;clip-rule:evenodd;stroke-linejoin:round;stroke-miterlimit:2;"><path id="path125" d="M33.827,18.182c-0,7.29 -6.211,15.56 -14.135,22.783c-7.451,-6.842 -14.302,-15.493 -14.302,-22.783c-0,-7.241 6.418,-13.199 14.218,-13.199c7.8,0 14.219,5.958 14.219,13.199Z" style="fill:#ba1b02;fill-rule:nonzero;"/><path d="M37.885,18.182c-0,-9.381 -8.17,-17.257 -18.277,-17.257c-10.106,-0 -18.276,7.876 -18.276,17.257c-0,3.543 1.241,7.379 3.419,11.206c2.879,5.057 7.409,10.171 12.197,14.567l2.734,2.511l2.744,-2.502c8.884,-8.099 15.459,-17.609 15.459,-25.782Zm-4.058,0c-0,-7.241 -6.419,-13.199 -14.219,-13.199c-7.8,0 -14.218,5.958 -14.218,13.199c-0,7.29 6.851,15.941 14.302,22.783c7.924,-7.223 14.135,-15.493 14.135,-22.783Z" style="fill-opacity:0.37;"/></svg>